# xmcd CD database file
#
# Track frame offsets:
#	182
#	11567
#	23155
#	33385
#	45447
#	57442
#	71407
#	82527
#	94007
#	104790
#	117075
#	129017
#	141700
#	154212
#	167242
#	180210
#	192625
#	203660
#	214535
#	227365
#	240847
#	253362
#
# Disc length: 3525 seconds
#
# Revision: 1
# Processed by: cddbd v1.5.2PL0 Copyright (c) Steve Scherf et al.
# Submitted via: CDex 1.51
#
DISCID=1f0dc316
DTITLE=Pete Lewis, Jimmy Nolan, Cal Green - Scratchin'
DYEAR=2003
DGENRE=Jazz
TTITLE0=Jimmy Nolen - Strollin' With Nolan (alt)
TTITLE1=Pete 'Guitar' Lewis - Lousianna Hop
TTITLE2=Jimmy Nolen - How Fine Can You Be
TTITLE3=Pete 'Guitar' Lewis - Scratchin'
TTITLE4=Jimmy Nolen - You've Been Goofing
TTITLE5=Pete 'Guitar' Lewis - Crying With The Rising Sun
TTITLE6=Jimmy Nolen - The Way You Do
TTITLE7=Cal Green - The Big Push
TTITLE8=Pete 'Guitar' Lewis - Rageddy Blues
TTITLE9=Jimmy Nolen - I Can't Stand You No More (alt)
TTITLE10=Jimmy Nolen - After Hours
TTITLE11=Pete 'Guitar' Lewis - Harmonica Boogie
TTITLE12=Jimmy Nolen - Don't Leave Me No More
TTITLE13=Pete 'Guitar' Lewis - Chocolate Pork Chop Man
TTITLE14=Jimmy Nolen - Wipe Your Tears
TTITLE15=Cal Green - Greens Blues
TTITLE16=Jimmy Nolen - It Hurts Me Too
TTITLE17=Jimmy Nolen - Strollin' With Nolan
TTITLE18=Pete 'Guitar' Lewis - The Blast
TTITLE19=Jimmy Nolen - Strawberry Jam
TTITLE20=Pete 'Guitar' Lewis - Ooh Midnight
TTITLE21=Jimmy Nolen - Movin On Down The Line
EXTD=
EXTT0=
EXTT1=
EXTT2=
EXTT3=
EXTT4=
EXTT5=
EXTT6=
EXTT7=
EXTT8=
EXTT9=
EXTT10=
EXTT11=
EXTT12=
EXTT13=
EXTT14=
EXTT15=
EXTT16=
EXTT17=
EXTT18=
EXTT19=
EXTT20=
EXTT21=
PLAYORDER=
